# xmcd
#
# Track frame offsets:
#	150
#	14405
#	27786
#	47090
#	57831
#	72153
#	84680
#	97764
#	107305
#	124488
#	142055
#	153823
#	170708
#	186153
#	201262
#	218128
#	233928
#
# Disc length: 3297 seconds
#
# Revision: 0
# Processed by: cddbd v1.5.1PL0 Copyright (c) Steve Scherf et al.
# Submitted via: dBpowerAMP V4.0
#
DISCID=ea0cdf11
DTITLE=Kenny Rogers - Back To The Well - Bonus CD
DYEAR=1900
DGENRE=
TTITLE0=Islands In The Stream
TTITLE1=Daytime Friends
TTITLE2=She Believes In Me
TTITLE3=Ruby, Don't Take Your Love To Town
TTITLE4=Love Will Turn You Around
TTITLE5=The Greatest
TTITLE6=Love Or Something Like It
TTITLE7=Through The Years
TTITLE8=Lucille
TTITLE9=Don't Fall In Love With A Dreamer
TTITLE10=Coward Of The County
TTITLE11=Lady
TTITLE12=Crazy
TTITLE13=The Gambler
TTITLE14=We've Got Tonight
TTITLE15=You Decorated My Life
TTITLE16=Slow Dance More
EXTD=
EXTT0=
EXTT1=
EXTT2=
EXTT3=
EXTT4=
EXTT5=
EXTT6=
EXTT7=
EXTT8=
EXTT9=
EXTT10=
EXTT11=
EXTT12=
EXTT13=
EXTT14=
EXTT15=
EXTT16=
PLAYORDER=
